<svg width="22" height="22" viewBox="0 0 22 22" fill="none" xmlns="http://www.w3.org/2000/svg">
<path d="M10.9955 15.287V12.9614" stroke="#222222" stroke-width="1.3" stroke-linecap="round" stroke-linejoin="round"/>
<path fill-rule="evenodd" clip-rule="evenodd" d="M16.6741 4.88574C18.2233 4.88574 19.4699 6.14158 19.4699 7.69074V10.8441C17.2149 12.1641 14.2358 12.9616 10.9908 12.9616C7.74575 12.9616 4.77575 12.1641 2.52075 10.8441V7.68158C2.52075 6.13241 3.77659 4.88574 5.32575 4.88574H16.6741Z" stroke="#222222" stroke-width="1.3" stroke-linecap="round" stroke-linejoin="round"/>
<path d="M14.2038 4.88184V4.54634C14.2038 3.42801 13.2963 2.52051 12.178 2.52051H9.813C8.69467 2.52051 7.78717 3.42801 7.78717 4.54634V4.88184" stroke="#222222" stroke-width="1.3" stroke-linecap="round" stroke-linejoin="round"/>
<path d="M2.54321 14.1924L2.71646 16.4923C2.8338 18.0424 4.12538 19.2405 5.67913 19.2405H16.3115C17.8653 19.2405 19.1569 18.0424 19.2742 16.4923L19.4475 14.1924" stroke="#222222" stroke-width="1.3" stroke-linecap="round" stroke-linejoin="round"/>
</svg>
