<svg width="17" height="17" viewBox="0 0 17 17" fill="none" xmlns="http://www.w3.org/2000/svg">
<path d="M16.3064 6.05867L8.80642 2.05867C8.73408 2.02015 8.65338 2 8.57142 2C8.48946 2 8.40876 2.02015 8.33642 2.05867L0.836423 6.05867C0.756425 6.1013 0.689523 6.16488 0.642873 6.2426C0.596222 6.32033 0.571579 6.40927 0.571579 6.49992C0.571579 6.59057 0.596222 6.67951 0.642873 6.75723C0.689523 6.83495 0.756425 6.89853 0.836423 6.94117L2.57142 7.86679V10.893C2.5709 11.1386 2.66129 11.3757 2.82517 11.5587C3.64392 12.4705 5.4783 13.9999 8.57142 13.9999C9.59701 14.0084 10.6149 13.8226 11.5714 13.4524V15.4999C11.5714 15.6325 11.6241 15.7597 11.7179 15.8535C11.8116 15.9472 11.9388 15.9999 12.0714 15.9999C12.204 15.9999 12.3312 15.9472 12.425 15.8535C12.5187 15.7597 12.5714 15.6325 12.5714 15.4999V12.9693C13.2234 12.5929 13.8126 12.117 14.3177 11.5587C14.4816 11.3757 14.5719 11.1386 14.5714 10.893V7.86679L16.3064 6.94117C16.3864 6.89853 16.4533 6.83495 16.5 6.75723C16.5466 6.67951 16.5713 6.59057 16.5713 6.49992C16.5713 6.40927 16.5466 6.32033 16.5 6.2426C16.4533 6.16488 16.3864 6.1013 16.3064 6.05867ZM8.57142 12.9999C5.86705 12.9999 4.27642 11.6787 3.57142 10.893V8.39992L8.33642 10.9412C8.40876 10.9797 8.48946 10.9998 8.57142 10.9998C8.65338 10.9998 8.73408 10.9797 8.80642 10.9412L11.5714 9.46679V12.363C10.7839 12.7305 9.79142 12.9999 8.57142 12.9999ZM13.5714 10.8905C13.2717 11.2231 12.9364 11.5218 12.5714 11.7812V8.93304L13.5714 8.39992V10.8905ZM12.3214 7.93367L12.3077 7.92554L8.80767 6.05867C8.6909 5.99902 8.55537 5.98764 8.43028 6.02696C8.30519 6.06629 8.20056 6.15318 8.13892 6.26891C8.07728 6.38464 8.06358 6.51996 8.10075 6.6457C8.13793 6.77145 8.22301 6.87755 8.33767 6.94117L11.2589 8.49992L8.57142 9.93304L2.13392 6.49992L8.57142 3.06679L15.0089 6.49992L12.3214 7.93367Z" fill="#222222"/>
</svg>
