<svg width="16" height="17" viewBox="0 0 16 17" fill="none" xmlns="http://www.w3.org/2000/svg">
<path d="M11.9457 10.0465C11.773 10.2138 11.6937 10.4558 11.733 10.6932L12.3257 13.9732C12.3757 14.2512 12.2583 14.5325 12.0257 14.6932C11.7977 14.8598 11.4943 14.8798 11.2457 14.7465L8.293 13.2065C8.19033 13.1518 8.07633 13.1225 7.95967 13.1192H7.779C7.71633 13.1285 7.655 13.1485 7.599 13.1792L4.64567 14.7265C4.49967 14.7998 4.33433 14.8258 4.17233 14.7998C3.77767 14.7252 3.51433 14.3492 3.579 13.9525L4.17233 10.6725C4.21167 10.4332 4.13233 10.1898 3.95967 10.0198L1.55233 7.6865C1.351 7.49117 1.281 7.19784 1.373 6.93317C1.46233 6.66917 1.69033 6.4765 1.96567 6.43317L5.279 5.9525C5.531 5.9265 5.75233 5.77317 5.86567 5.5465L7.32567 2.55317C7.36033 2.4865 7.405 2.42517 7.459 2.37317L7.519 2.3265C7.55033 2.29184 7.58633 2.26317 7.62633 2.23984L7.699 2.21317L7.81234 2.1665H8.093C8.34367 2.1925 8.56433 2.3425 8.67967 2.5665L10.159 5.5465C10.2657 5.7645 10.473 5.91584 10.7123 5.9525L14.0257 6.43317C14.3057 6.47317 14.5397 6.6665 14.6323 6.93317C14.7197 7.2005 14.6443 7.49384 14.439 7.6865L11.9457 10.0465Z" fill="#FFBF00"/>
</svg>
