<svg width="50" height="50" viewBox="0 0 50 50" fill="none" xmlns="http://www.w3.org/2000/svg">
<g clip-path="url(#clip0_79_14033)">
<rect width="50" height="50" rx="15.15" fill="#DEDEDE"/>
<path d="M317.891 57.5127C323.015 27.8273 308.793 -2.09214 294.373 -27.5805C287.686 -39.4008 282.623 -46.6241 269.416 -50.8381C250.131 -56.9913 226.626 -49.3626 211.111 -38.0327C190.972 -23.3271 188.383 0.241449 185.992 24.0635M117.173 114.243C113.906 107.392 137.13 11.3957 126.616 15.5049C120.444 17.9171 116.605 24.4483 113.109 29.7144C105.905 40.5642 99.2046 51.7756 91.7113 62.4191C89.8164 65.1107 67.3179 96.9377 63.4229 91.1533C52.93 75.5706 62.3538 40.5073 53.213 24.1934C50.798 19.8833 47.8015 13.3336 42.9327 11.2614C35.3163 8.01974 28.1929 15.9517 24.9859 21.6535C11.1864 46.1883 9.77396 77.5809 0.765059 104.378C0.269597 105.852 -1.03835 111.566 -3.21056 112.061C-3.55392 112.139 -3.74342 111.874 -3.51443 112.531C-1.31671 118.845 2.83962 126.28 5.56021 131.997M175.795 268.069C190.73 261.171 205.597 253.746 218.759 243.762C236.917 229.988 247.975 211.421 260.197 192.375C267.584 180.864 275.356 169.585 283.948 158.996C287.095 155.117 290.36 151.454 294.644 148.884C301.968 144.49 307.711 160.796 310.071 165.473C322.229 189.565 329.348 215.585 335.237 241.692C340.229 263.826 344.79 286.649 345.261 309.282C345.359 314.028 346.534 327.967 337.6 324.96C332.203 323.144 323.078 315.604 319.5 312.512C300.998 296.528 284.286 278.379 266.371 261.725C230.831 228.689 191.884 201.178 146.428 185.33C114.862 174.325 80.3592 171.951 47.6617 172.662" stroke="#D1D1D1" stroke-width="18.18" stroke-linecap="square"/>
<path d="M273.013 -58.4914C267.088 -88.0273 243.035 -110.806 220.394 -129.379C209.894 -137.993 202.567 -142.905 188.729 -142.073C168.523 -140.858 149.35 -125.267 138.964 -109.104C125.483 -88.1261 131.566 -65.2096 137.927 -42.1283M106.256 66.8001C100.738 61.5881 87.784 -36.3244 79.459 -28.7002C74.5722 -24.2249 73.3466 -16.7486 71.9845 -10.5761C69.1781 2.14121 66.9707 15.0147 63.8196 27.6442C63.0228 30.8379 53.5146 68.6365 47.7958 64.6458C32.3898 53.8952 28.5359 17.7926 14.1274 5.87244C10.3207 2.72314 5.16398 -2.30538 -0.124537 -2.48252C-8.39744 -2.75964 -12.1814 7.20735 -13.1165 13.682C-17.1405 41.5422 -7.13794 71.3321 -5.8777 99.5753C-5.80839 101.129 -4.96798 106.93 -6.81555 108.175C-7.1076 108.371 -7.38013 108.192 -6.92934 108.723C-2.60287 113.819 3.95483 119.255 8.55398 123.607M216.403 189.138C227.846 177.319 239.035 165.033 247.711 150.974C259.681 131.579 263.3 110.273 267.831 88.1025C270.57 74.7011 273.753 61.3784 277.948 48.4036C279.485 43.6516 281.21 39.0575 284.278 35.1159C289.525 28.376 300.761 41.5141 304.649 45.0253C324.677 63.1128 340.7 84.8151 355.606 107.042C368.244 125.887 380.728 145.53 389.328 166.47C391.132 170.862 397.254 183.439 387.837 183.856C382.148 184.108 370.918 180.365 366.465 178.772C343.444 170.535 321.313 159.633 298.598 150.56C253.535 132.562 207.289 120.946 159.176 122.555C125.765 123.673 92.7279 133.9 62.4867 146.355" stroke="#F0F0F0" stroke-width="18.18" stroke-linecap="square"/>
</g>
<defs>
<clipPath id="clip0_79_14033">
<rect width="50" height="50" rx="15.15" fill="white"/>
</clipPath>
</defs>
</svg>
