<svg width="197" height="19" viewBox="0 0 197 19" fill="none" xmlns="http://www.w3.org/2000/svg">
<path d="M4.28 0.959999V18H0.92V0.959999H4.28ZM18.5553 9.6V18H15.4353V10.536C15.4353 9.72 15.2353 9.096 14.8353 8.664C14.4513 8.232 13.8913 8.016 13.1553 8.016C12.4353 8.016 11.8433 8.256 11.3793 8.736C10.9153 9.216 10.6833 9.84 10.6833 10.608V18H7.56331V5.736H10.4673V7.128C11.2993 5.928 12.5313 5.328 14.1633 5.328C15.5393 5.328 16.6113 5.72 17.3793 6.504C18.1633 7.272 18.5553 8.304 18.5553 9.6ZM28.6267 5.736H31.8667L27.6907 18H23.8987L19.7467 5.736H23.0347L24.2587 9.744C24.9947 12.192 25.5227 14.048 25.8427 15.312C26.3387 13.328 26.8587 11.472 27.4027 9.744L28.6267 5.736ZM42.8257 14.064L44.5777 15.984C43.7297 16.848 42.8737 17.464 42.0097 17.832C41.1457 18.2 40.1777 18.384 39.1057 18.384C37.1377 18.384 35.5697 17.8 34.4017 16.632C33.2497 15.464 32.6737 13.896 32.6737 11.928C32.6737 9.992 33.2337 8.408 34.3537 7.176C35.4737 5.944 36.9697 5.328 38.8417 5.328C40.6657 5.328 42.0737 5.864 43.0657 6.936C44.0737 8.008 44.5777 9.512 44.5777 11.448C44.5777 11.784 44.5617 12.192 44.5297 12.672H35.7217C35.8657 13.648 36.2257 14.408 36.8017 14.952C37.3937 15.48 38.1857 15.744 39.1777 15.744C39.8657 15.744 40.4497 15.624 40.9297 15.384C41.4417 15.144 42.0737 14.704 42.8257 14.064ZM35.7937 10.44H41.5297C41.4657 9.608 41.1857 8.96 40.6897 8.496C40.2097 8.016 39.5617 7.776 38.7457 7.776C37.1617 7.776 36.1777 8.664 35.7937 10.44ZM54.6708 5.928L54.1188 8.664C53.5268 8.504 53.0068 8.424 52.5588 8.424C51.7268 8.424 51.0708 8.736 50.5908 9.36C50.1108 9.984 49.8708 10.848 49.8708 11.952V18H46.7508V5.736H49.6548V7.536C50.2948 6.224 51.3188 5.568 52.7268 5.568C53.2548 5.568 53.9028 5.688 54.6708 5.928ZM65.9692 7.248L64.2892 9.288C63.5852 8.728 62.9612 8.352 62.4172 8.16C61.8892 7.952 61.2892 7.848 60.6172 7.848C59.9932 7.848 59.4892 7.96 59.1052 8.184C58.7372 8.408 58.5532 8.704 58.5532 9.072C58.5532 9.328 58.6412 9.528 58.8172 9.672C59.0892 9.88 59.9532 10.144 61.4092 10.464C63.1852 10.864 64.4172 11.336 65.1052 11.88C65.8092 12.424 66.1612 13.256 66.1612 14.376C66.1612 15.592 65.6892 16.568 64.7452 17.304C63.8012 18.024 62.5212 18.384 60.9052 18.384C59.7212 18.384 58.6732 18.208 57.7612 17.856C56.8652 17.504 55.9372 16.904 54.9772 16.056L56.7772 14.04C57.6572 14.76 58.3932 15.248 58.9852 15.504C59.5932 15.744 60.2572 15.864 60.9772 15.864C61.6172 15.864 62.1292 15.752 62.5132 15.528C62.9132 15.304 63.1132 14.984 63.1132 14.568C63.1132 14.232 62.9932 13.984 62.7532 13.824C62.4972 13.616 62.2092 13.48 61.8892 13.416C61.5532 13.32 60.9532 13.176 60.0892 12.984C58.3452 12.6 57.1532 12.144 56.5132 11.616C55.8892 11.072 55.5772 10.256 55.5772 9.168C55.5772 8.08 56.0332 7.168 56.9452 6.432C57.8732 5.696 59.1212 5.328 60.6892 5.328C61.7612 5.328 62.6972 5.472 63.4972 5.76C64.2972 6.048 65.1212 6.544 65.9692 7.248ZM77.771 14.064L79.523 15.984C78.675 16.848 77.819 17.464 76.955 17.832C76.091 18.2 75.123 18.384 74.051 18.384C72.083 18.384 70.515 17.8 69.347 16.632C68.195 15.464 67.619 13.896 67.619 11.928C67.619 9.992 68.179 8.408 69.299 7.176C70.419 5.944 71.915 5.328 73.787 5.328C75.611 5.328 77.019 5.864 78.011 6.936C79.019 8.008 79.523 9.512 79.523 11.448C79.523 11.784 79.507 12.192 79.475 12.672H70.667C70.811 13.648 71.171 14.408 71.747 14.952C72.339 15.48 73.131 15.744 74.123 15.744C74.811 15.744 75.395 15.624 75.875 15.384C76.387 15.144 77.019 14.704 77.771 14.064ZM70.739 10.44H76.475C76.411 9.608 76.131 8.96 75.635 8.496C75.155 8.016 74.507 7.776 73.691 7.776C72.107 7.776 71.123 8.664 70.739 10.44Z" fill="#222222"/>
<path d="M84.9361 14.52V18H81.5281V14.52H84.9361ZM99.8686 0.959999V3.792H91.2526V7.776H99.3166V10.608H91.2526V15.168H100.133V18H87.8926V0.959999H99.8686ZM110.677 0.959999H113.797V18H110.893V16.392C110.013 17.704 108.709 18.36 106.981 18.36C105.397 18.36 104.093 17.768 103.069 16.584C102.061 15.384 101.557 13.816 101.557 11.88C101.557 9.944 102.069 8.384 103.093 7.2C104.117 6 105.421 5.4 107.005 5.4C108.621 5.4 109.845 5.936 110.677 7.008V0.959999ZM110.797 11.88C110.797 10.728 110.509 9.816 109.933 9.144C109.373 8.456 108.637 8.112 107.725 8.112C106.813 8.112 106.085 8.456 105.541 9.144C104.997 9.816 104.725 10.728 104.725 11.88C104.725 13.032 104.989 13.952 105.517 14.64C106.061 15.328 106.789 15.672 107.701 15.672C108.613 15.672 109.357 15.328 109.933 14.64C110.509 13.936 110.797 13.016 110.797 11.88ZM124.204 5.736H127.324V18H124.468V16.704C123.78 17.824 122.58 18.384 120.868 18.384C119.444 18.384 118.364 18.04 117.628 17.352C116.892 16.664 116.524 15.712 116.524 14.496V5.736H119.644V13.632C119.644 14.272 119.82 14.776 120.172 15.144C120.524 15.496 121.028 15.672 121.684 15.672C122.468 15.672 123.084 15.456 123.532 15.024C123.98 14.576 124.204 13.944 124.204 13.128V5.736ZM135.783 7.968C134.807 7.968 134.031 8.336 133.455 9.072C132.895 9.792 132.615 10.72 132.615 11.856C132.615 12.992 132.895 13.92 133.455 14.64C134.015 15.36 134.783 15.72 135.759 15.72C136.335 15.72 136.871 15.576 137.367 15.288C137.879 15 138.455 14.512 139.095 13.824L141.159 15.552C140.327 16.592 139.487 17.328 138.639 17.76C137.807 18.176 136.831 18.384 135.711 18.384C133.839 18.384 132.327 17.792 131.175 16.608C130.023 15.424 129.447 13.84 129.447 11.856C129.447 9.872 130.031 8.288 131.199 7.104C132.367 5.92 133.895 5.328 135.783 5.328C136.823 5.328 137.743 5.512 138.543 5.88C139.359 6.232 140.151 6.824 140.919 7.656L138.975 9.576C138.335 8.968 137.775 8.552 137.295 8.328C136.815 8.088 136.311 7.968 135.783 7.968ZM153.666 9.72V18H150.858V16.728C150.042 17.848 148.722 18.408 146.898 18.408C145.586 18.408 144.522 18.104 143.706 17.496C142.906 16.888 142.506 16.024 142.506 14.904C142.506 13.672 142.954 12.72 143.85 12.048C144.746 11.376 146.066 10.888 147.81 10.584L150.69 10.056V9.768C150.69 9.176 150.482 8.72 150.066 8.4C149.666 8.064 149.106 7.896 148.386 7.896C147.602 7.896 146.962 8.048 146.466 8.352C145.89 8.704 145.258 9.216 144.57 9.888L142.602 8.088C144.154 6.248 146.066 5.328 148.338 5.328C150.034 5.328 151.346 5.72 152.274 6.504C153.202 7.288 153.666 8.36 153.666 9.72ZM150.69 13.008V12.288L148.626 12.72C147.522 12.96 146.73 13.224 146.25 13.512C145.786 13.784 145.554 14.176 145.554 14.688C145.554 15.072 145.714 15.376 146.034 15.6C146.37 15.808 146.834 15.912 147.426 15.912C148.386 15.912 149.17 15.664 149.778 15.168C150.386 14.672 150.69 13.952 150.69 13.008ZM163.285 15.36L163.645 17.832C162.749 18.136 161.829 18.288 160.885 18.288C159.685 18.288 158.805 18.008 158.245 17.448C157.685 16.872 157.405 16 157.405 14.832V8.112H155.221V5.736H157.405V1.944H160.525V5.736H163.453V8.112H160.525V14.448C160.525 14.864 160.621 15.16 160.812 15.336C161.005 15.496 161.317 15.576 161.749 15.576C162.181 15.576 162.693 15.504 163.285 15.36ZM168.582 5.736V18H165.462V5.736H168.582ZM168.582 0.959999V3.888H165.462V0.959999H168.582ZM181.641 7.152C182.841 8.352 183.441 9.92 183.441 11.856C183.441 13.792 182.841 15.368 181.641 16.584C180.457 17.784 178.937 18.384 177.081 18.384C175.209 18.384 173.673 17.784 172.473 16.584C171.289 15.368 170.697 13.792 170.697 11.856C170.697 9.92 171.289 8.352 172.473 7.152C173.673 5.936 175.209 5.328 177.081 5.328C178.937 5.328 180.457 5.936 181.641 7.152ZM173.865 11.856C173.865 13.04 174.153 13.984 174.729 14.688C175.321 15.392 176.105 15.744 177.081 15.744C178.041 15.744 178.809 15.392 179.385 14.688C179.977 13.984 180.273 13.04 180.273 11.856C180.273 10.688 179.977 9.752 179.385 9.048C178.809 8.328 178.041 7.968 177.081 7.968C176.105 7.968 175.321 8.328 174.729 9.048C174.153 9.752 173.865 10.688 173.865 11.856ZM196.54 9.6V18H193.42V10.536C193.42 9.72 193.22 9.096 192.82 8.664C192.436 8.232 191.876 8.016 191.14 8.016C190.42 8.016 189.828 8.256 189.364 8.736C188.9 9.216 188.668 9.84 188.668 10.608V18H185.548V5.736H188.452V7.128C189.284 5.928 190.516 5.328 192.148 5.328C193.524 5.328 194.596 5.72 195.364 6.504C196.148 7.272 196.54 8.304 196.54 9.6Z" fill="#00D7B7"/>
</svg>
