<svg width="1024" height="1024" viewBox="0 0 1024 1024" fill="none" xmlns="http://www.w3.org/2000/svg">
<rect width="1024" height="1024" rx="256.242" fill="#00D7B7"/>
<path fill-rule="evenodd" clip-rule="evenodd" d="M512.487 456.369L743.886 596.164C775.906 615.509 816.775 592.451 816.775 555.04V226.681C816.775 186.57 770.529 164.119 739.012 188.929L512.487 367.243L285.962 188.928C254.444 164.119 208.199 186.57 208.199 226.68V555.04C208.199 592.451 249.067 615.508 281.088 596.164L512.487 456.369Z" fill="white"/>
<path fill-rule="evenodd" clip-rule="evenodd" d="M154.188 744.161C137.969 732.368 129.705 712.624 132.027 692.705C158.709 463.807 318.88 287.865 512.483 287.865C706.087 287.865 866.259 463.809 892.939 692.71C895.261 712.629 886.997 732.373 870.777 744.166C782.797 808.13 654.875 848.392 512.486 848.392C370.093 848.392 242.168 808.128 154.188 744.161Z" fill="white"/>
<path d="M463.999 560C463.999 515.818 424.601 480.001 376 480.001C327.399 480.001 288.001 515.818 288.001 560" stroke="#222222" stroke-width="35.2333" stroke-linecap="round" stroke-linejoin="round"/>
<path d="M592.003 560.002L736.001 560.002" stroke="#222222" stroke-width="35.2333" stroke-linecap="round" stroke-linejoin="round"/>
</svg>
